<?xml version="1.0" encoding="UTF-8"?>
<svg id="Layer_2" data-name="Layer 2" xmlns="http://www.w3.org/2000/svg" viewBox="0 0 388.21 102.56">
  <defs>
    <style>
      .cls-1 {
        fill: none;
        stroke: #231f20;
        stroke-linecap: round;
        stroke-linejoin: round;
        stroke-width: 2px;
      }
    </style>
  </defs>
  <g id="Layer_1-2" data-name="Layer 1">
    <g>
      <path class="cls-1" d="M386.81,10.07H1"/>
      <path class="cls-1" d="M386.81,1H1"/>
      <path class="cls-1" d="M386.81,101.56H1"/>
      <path class="cls-1" d="M386.81,92.49H1"/>
      <path class="cls-1" d="M168.04,31.96c-3.95-3.94-7.94-7.85-11.81-11.86-.81-.84-1.59-.96-2.6-.96-15.99.01-31.99.02-47.98-.01-1.2,0-2.09.26-2.99,1.17-8.18,8.26-16.43,16.46-24.65,24.67"/>
      <path class="cls-1" d="M296.78,31.96c-3.95-3.94-7.94-7.85-11.81-11.86-.81-.84-1.59-.96-2.6-.96-15.99.01-31.99.02-47.98-.01-1.2,0-2.09.26-2.99,1.17-7.98,8.07-16.03,16.06-24.06,24.08"/>
      <path class="cls-1" d="M181.07,57.98c-1,.1-1.37,1.01-1.96,1.59-7.46,7.4-14.93,14.8-22.29,22.3-1.21,1.23-2.39,1.57-3.99,1.56-15.8-.04-31.59-.03-47.39-.02-1.01,0-1.79-.12-2.6-.96-3.81-3.95-7.73-7.79-11.62-11.67"/>
      <path class="cls-1" d="M309.61,57.98c-4.32,3.89-8.28,8.16-12.43,12.23-4.25,4.17-8.45,8.38-12.62,12.63-.57.59-1.15.57-1.8.57-16.32,0-32.64,0-48.97.02-.96,0-1.55-.36-2.18-1-3.86-3.9-7.75-7.77-11.64-11.64"/>
      <path class="cls-1" d="M161.72,38.26c-3.42-2.89-6.54-6.09-9.65-9.29-.67-.69-1.35-.78-2.2-.78-13.56.01-27.12.02-40.67-.01-1.33,0-2.27.43-3.18,1.39-6.86,7.27-14.04,14.23-21.11,21.31"/>
      <path class="cls-1" d="M174.16,51.87c-7.11,7.1-14.24,14.17-21.3,21.32-.9.91-1.79,1.18-2.99,1.17-13.62-.03-27.25-.02-40.87-.01-1.01,0-1.8-.11-2.6-.96-2.87-3.04-5.89-5.95-8.85-8.91"/>
      <path class="cls-1" d="M302.9,51.87c-7.11,7.1-14.24,14.17-21.3,21.32-.9.91-1.79,1.18-2.99,1.17-13.62-.03-27.25-.02-40.87-.03-.76,0-1.51.17-2.19-.56-2.95-3.17-6.23-6-9.06-9.29"/>
      <path class="cls-1" d="M290.06,38.07c-3.21-2.77-6.09-5.88-9.05-8.91-.81-.83-1.6-.96-2.6-.96-13.36.01-26.72.02-40.08-.01-1.2,0-2.09.26-2.99,1.17-7.19,7.28-14.45,14.49-21.69,21.72"/>
      <path class="cls-1" d="M168.04,57.59c-5.99-5.98-12.01-11.94-17.94-17.97-.9-.92-1.79-1.18-2.99-1.17-11.78.03-23.56.02-35.34.01-1.01,0-1.83.08-2.6.96-1.59,1.81-3.39,3.45-5.1,5.16"/>
      <path class="cls-1" d="M296.78,57.59c-5.99-5.98-12.01-11.94-17.94-17.97-.9-.92-1.79-1.18-2.99-1.17-11.78.03-23.56.02-35.34.01-1.01,0-1.83.08-2.6.96-1.59,1.81-3.39,3.45-5.1,5.16"/>
      <path class="cls-1" d="M91.23,45.17c5.92,5.92,11.87,11.8,17.74,17.77.9.92,1.79,1.18,2.99,1.17,11.78-.03,23.56-.02,35.34-.01,1.01,0,1.83-.08,2.6-.96,1.53-1.75,3.26-3.32,4.9-4.96"/>
      <path class="cls-1" d="M219.97,45.17c5.92,5.92,11.87,11.8,17.74,17.77.9.92,1.79,1.18,2.99,1.17,11.78-.03,23.56-.02,35.34-.01,1.01,0,1.83-.08,2.6-.96,1.53-1.75,3.26-3.32,4.9-4.96"/>
      <path class="cls-1" d="M51.74,58.18c-4,4.28-8.2,8.38-12.34,12.52-3.94,3.94-7.92,7.86-11.91,11.77-.82.81-1.6.96-2.6.96-7.96-.01-15.93,0-23.89,0"/>
      <path class="cls-1" d="M45.43,51.87c-4.28,4-8.33,8.25-12.54,12.32-3.06,2.96-6.12,5.99-8.95,9.2-.78.88-1.59.97-2.6.97-6.78-.02-13.56,0-20.34,0"/>
      <path class="cls-1" d="M348.71,70.99c4,3.56,7.65,7.48,11.42,11.27.91.91,1.79,1.18,2.99,1.17,7.37-.04,14.74-.02,22.11-.01.66,0,1.34-.12,1.97.19"/>
      <path class="cls-1" d="M386.81,19.14c-7.96,0-15.93,0-23.89,0-1.01,0-1.79.14-2.6.96-4.03,4.06-8.11,8.07-12.16,12.11-4.05,4.03-8.11,8.07-12.09,12.18"/>
      <path class="cls-1" d="M226.68,38.86c5.13,5.13,10.3,10.22,15.37,15.41.9.92,1.79,1.18,2.99,1.17,9.02-.04,18.03-.03,27.05-.01,1.02,0,1.81.02,2.44-1.15.59-1.1,1.77-1.88,2.69-2.8"/>
      <path class="cls-1" d="M39.3,31.96c-3.95-3.94-7.94-7.85-11.81-11.86-.81-.84-1.59-.96-2.6-.96-7.96.01-15.93,0-23.89,0"/>
      <path class="cls-1" d="M97.75,38.66c5.2,5.19,10.43,10.35,15.57,15.6.9.92,1.79,1.18,2.99,1.17,8.82-.04,17.64-.04,26.46,0,1.44,0,2.62-.02,3.41-1.57.49-.94,1.52-1.61,2.31-2.39"/>
      <path class="cls-1" d="M290.26,63.9c-5.29-4.77-10.15-9.98-15.17-15.02-1.09-1.09-2.15-1.38-3.59-1.37-8.69.05-17.38.07-26.06,0-1.8-.02-3.27.22-4.36,1.79-.47.68-1.16,1.2-1.76,1.79"/>
      <path class="cls-1" d="M161.53,63.9c-5.29-4.77-10.15-9.98-15.17-15.02-1.09-1.09-2.15-1.38-3.59-1.37-8.69.05-17.38.07-26.06,0-1.8-.02-3.27.22-4.36,1.79-.47.68-1.16,1.2-1.76,1.79"/>
      <path class="cls-1" d="M386.81,28.21c-6.58,0-13.16.02-19.74-.02-1.2,0-2.09.26-2.99,1.17-7.19,7.28-14.45,14.49-21.69,21.72"/>
      <path class="cls-1" d="M335.28,58.18c-8.42,8.41-16.85,16.83-25.5,25.47-4.27-4.48-8.64-8.45-12.6-12.85"/>
      <path class="cls-1" d="M355.22,64.49c2.83,3.28,6.11,6.12,9.06,9.29.62.67,1.29.57,2,.57,6.84,0,13.69,0,20.53,0"/>
      <path class="cls-1" d="M32.59,38.26c-3.03-3.02-6.11-6-9.05-9.1-.8-.85-1.6-.96-2.6-.96-6.65.02-13.29,0-19.94,0"/>
      <path class="cls-1" d="M168.44,70.8c3.96,4.4,8.33,8.37,12.6,12.85,8.65-8.64,17.08-17.05,25.5-25.47"/>
      <path class="cls-1" d="M65.37,70.8c3.96,4.4,8.33,8.37,12.6,12.85,8.65-8.64,17.08-17.05,25.5-25.47"/>
      <path class="cls-1" d="M39.3,57.59c-5.99-5.98-12.01-11.94-17.94-17.97-.9-.92-1.79-1.18-2.99-1.17-5.79.04-11.58.02-17.38.02"/>
      <path class="cls-1" d="M348.71,45.17c5.92,5.92,11.87,11.8,17.74,17.77.9.92,1.79,1.18,2.99,1.17,5.79-.04,11.58-.02,17.38-.02"/>
      <path class="cls-1" d="M386.81,38.46c-5.86,0-11.72,0-17.57,0-1.01,0-1.83.08-2.6.96-1.59,1.81-3.39,3.45-5.1,5.16"/>
      <path class="cls-1" d="M26.08,58.18c-1.65,1.64-3.37,3.21-4.9,4.96-.77.89-1.6.97-2.6.96-5.86-.02-11.72,0-17.57,0"/>
      <path class="cls-1" d="M32.39,63.7c-5-4.99-10.04-9.96-14.98-15.01-.9-.92-1.79-1.19-2.99-1.17-4.47.05-8.95.02-13.43.02"/>
      <path class="cls-1" d="M355.42,38.86c5.13,5.13,10.3,10.22,15.37,15.41.9.92,1.79,1.19,2.99,1.17,4.34-.05,8.69-.02,13.03-.02"/>
      <path class="cls-1" d="M19.76,51.48c-.86.85-1.82,1.63-2.54,2.58-.95,1.26-2.14,1.41-3.58,1.39-4.21-.07-8.42-.03-12.64-.03"/>
      <path class="cls-1" d="M386.81,47.53c-3.36,0-6.73.22-10.06-.06-3.63-.3-6.6.46-8.69,3.61"/>
      <path class="cls-1" d="M315.93,38.07c-1.98-1.97-3.95-3.95-6.12-6.11-6.58,6.57-12.97,12.95-19.35,19.32"/>
      <path class="cls-1" d="M322.25,31.76c-4.08-4.07-8.16-8.15-12.39-12.37-.81.61-1.49,1.4-2.22,2.12-7.18,7.16-14.34,14.33-21.54,21.47-.59.58-.96,1.49-1.96,1.59"/>
      <path class="cls-1" d="M329.36,38.86c6.25,6.24,12.51,12.49,18.76,18.73"/>
      <path class="cls-1" d="M328.57,51.87c-6.25,6.24-12.51,12.49-18.76,18.73-2.04-2.04-4.08-4.07-6.12-6.11"/>
      <path class="cls-1" d="M323.04,45.17c6.19,6.18,12.37,12.36,18.56,18.53"/>
      <path class="cls-1" d="M200.62,38.86c6.25,6.24,12.51,12.49,18.76,18.73"/>
      <path class="cls-1" d="M348.11,31.96c-.29-1.09-1.27-1.63-1.99-2.35-3.43-3.48-6.9-6.91-10.45-10.46-8.69,8.68-17.28,17.25-25.87,25.83"/>
      <path class="cls-1" d="M219.38,31.96c-.29-1.09-1.27-1.63-1.99-2.35-3.43-3.48-6.9-6.91-10.45-10.46-8.69,8.68-17.28,17.25-25.87,25.83"/>
      <path class="cls-1" d="M168.63,45.17c6.19,6.18,12.37,12.36,18.56,18.53"/>
      <path class="cls-1" d="M78,57.98c-1,.1-1.37,1.01-1.96,1.59-7.33,7.27-14.63,14.58-21.93,21.87-.63.63-1.25,1.25-1.97,1.97-4.15-4.14-8.19-8.18-12.24-12.22"/>
      <path class="cls-1" d="M65.57,45.17c6.19,6.18,12.37,12.36,18.56,18.53"/>
      <path class="cls-1" d="M360.95,58.18c-8.39,8.38-16.78,16.76-25.37,25.34-4.24-4.24-8.39-8.38-12.54-12.52"/>
      <path class="cls-1" d="M71.88,38.86c6.25,6.24,12.51,12.49,18.76,18.73"/>
      <path class="cls-1" d="M193.51,31.76c-4.08-4.07-8.16-8.15-12.39-12.37-.81.61-1.49,1.4-2.22,2.12-7.11,7.09-14.22,14.2-21.33,21.28-.63.62-1.15,1.37-1.97,1.78"/>
      <path class="cls-1" d="M90.44,31.76c-4.08-4.07-8.16-8.15-12.39-12.37-.81.61-1.49,1.4-2.22,2.12-7.18,7.16-14.34,14.33-21.54,21.47-.59.58-.96,1.49-1.96,1.59"/>
      <path class="cls-1" d="M26.87,44.38c8.39-8.38,16.78-16.76,25.27-25.24,4.34,4.34,8.59,8.58,12.83,12.82"/>
      <path class="cls-1" d="M194.3,70.8c4.18,4.17,8.36,8.35,12.64,12.62,8.49-8.48,16.88-16.86,25.27-25.24"/>
      <path class="cls-1" d="M341.6,38.07c-1.98-1.97-3.95-3.95-5.93-5.92-.57.09-.76.38-.98.6-5.92,5.92-11.85,11.83-17.77,17.74-.22.22-.49.42-.39.79"/>
      <path class="cls-1" d="M58.46,38.07c-1.98-1.97-3.95-3.95-6.12-6.11-6.51,6.51-12.83,12.82-19.15,19.13"/>
      <path class="cls-1" d="M84.13,38.07c-1.98-1.97-3.95-3.95-5.93-5.92-.57.09-.76.38-.98.6-5.92,5.92-11.85,11.83-17.77,17.74-.22.22-.49.42-.39.79"/>
      <path class="cls-1" d="M212.86,38.07c-1.98-1.97-3.95-3.95-5.93-5.92-.57.09-.76.38-.98.6-5.92,5.92-11.85,11.83-17.77,17.74-.22.22-.49.42-.39.79"/>
      <path class="cls-1" d="M46.22,38.86c6.25,6.24,12.51,12.49,18.76,18.73"/>
      <path class="cls-1" d="M71.09,51.87c-6.25,6.24-12.51,12.49-18.76,18.73-2.04-2.04-4.08-4.07-6.12-6.11"/>
      <path class="cls-1" d="M354.63,51.48c-6.38,6.38-12.77,12.75-19.15,19.13-2.04-2.04-4.08-4.07-6.12-6.11"/>
      <path class="cls-1" d="M225.89,51.48c-6.38,6.38-12.77,12.75-19.15,19.13-2.04-2.04-4.08-4.07-6.12-6.11"/>
      <path class="cls-1" d="M97.16,51.48c-6.38,6.38-12.77,12.75-19.15,19.13-2.04-2.04-4.08-4.07-6.12-6.11"/>
      <path class="cls-1" d="M39.7,45.17c6.07,6.42,12.32,12.67,18.76,18.73"/>
      <path class="cls-1" d="M200.23,51.48c-6.38,6.38-12.77,12.75-19.15,19.13-2.04-2.04-4.08-4.07-6.12-6.11"/>
      <path class="cls-1" d="M187.39,38.26c-2.04-2.04-4.08-4.07-6.32-6.31-6.38,6.37-12.77,12.75-19.15,19.13"/>
      <path class="cls-1" d="M297.37,45.36c6.12,6.11,12.24,12.22,18.36,18.34"/>
      <path class="cls-1" d="M194.3,45.17c6.19,6.18,12.37,12.36,18.56,18.53"/>
      <path class="cls-1" d="M303.69,38.86c6.25,6.24,12.51,12.49,18.76,18.73"/>
      <path class="cls-1" d="M174.95,38.86c6.25,6.24,12.51,12.49,18.76,18.73"/>
    </g>
  </g>
</svg>